# xmcd
#
# Track frame offsets: 
#        150
#        27961
#        48246
#        83372
#        103269
#        133642
#        172742
#        189864
#        220005
#
# Disc length: 3532 seconds
#
# Revision: 0
# Processed by: cddbd v1.5.1PL2 Copyright (c) Steve Scherf et al.
# Submitted via: ExactAudioCopy v0.95a5
#
DISCID=650dca09
DTITLE=Eric Clapton - One More Car, One More Ride - Live On Tour 2001 
DTITLE=CD2
DYEAR=2001
DGENRE=Blues
TTITLE0=I Want a Little Girl
TTITLE1=Badge
TTITLE2=Hoochie Koochie Man
TTITLE3=Have You Ever Loved a Woman
TTITLE4=Cocaine
TTITLE5=Wonderful Tonight
TTITLE6=Layla
TTITLE7=Sunshine of Your Love
TTITLE8=Over the Rainbow
EXTD=
EXTT0=
EXTT1=
EXTT2=
EXTT3=
EXTT4=
EXTT5=
EXTT6=
EXTT7=
EXTT8=
PLAYORDER=
